<svg xmlns="http://www.w3.org/2000/svg" version="1.1" xmlns:xlink="http://www.w3.org/1999/xlink" width="320" height="320"><svg xmlns="http://www.w3.org/2000/svg" version="1.1" xmlns:xlink="http://www.w3.org/1999/xlink" width="320" height="320"><svg width="320" height="320" viewBox="0 0 320 320" fill="none" xmlns="http://www.w3.org/2000/svg">
<rect width="320" height="320" fill="#311D11"></rect>
<path d="M80 79.9609H179.819C190.621 79.9609 199.976 80.9306 207.884 82.87C215.793 84.8094 222.544 87.4947 228.137 90.926C240.096 98.5344 246.076 108.753 246.076 121.583C246.076 129.639 243.568 136.203 238.553 141.276C233.538 146.348 226.401 150.227 217.143 152.912V153.583C228.523 156.269 237.492 161.117 244.051 168.129C250.802 174.991 254.177 183.196 254.177 192.744C254.177 200.8 252.345 207.812 248.68 213.779C245.015 219.597 239.807 224.52 233.056 228.548C220.518 236.157 203.544 239.961 182.134 239.961H80V79.9609ZM176.347 208.185C184.834 208.185 191.489 206.469 196.311 203.038C201.133 199.607 203.544 195.057 203.544 189.388C203.544 182.973 200.844 178.199 195.443 175.066C190.235 171.784 183.677 170.143 175.769 170.143H130.633V208.185H176.347ZM172.297 143.29C179.626 143.29 185.606 141.947 190.235 139.262C194.864 136.427 197.179 132.399 197.179 127.178C197.179 122.105 194.961 118.227 190.524 115.541C186.088 112.707 180.108 111.29 172.586 111.29H130.633V143.29H172.297Z" fill="#FC5517"></path>
<path d="M254.177 192.744C254.177 183.196 250.802 174.991 244.051 168.129C237.493 161.117 228.523 156.268 217.143 153.583V152.912C226.112 150.311 233.09 146.59 238.077 141.748L238.554 141.275C243.412 136.362 245.917 130.048 246.068 122.334L246.076 121.583C246.076 108.753 240.097 98.5341 228.138 90.9258C222.894 87.709 216.632 85.1478 209.354 83.2422L207.884 82.8701C200.47 81.052 191.784 80.0863 181.827 79.9727L179.819 79.9609V70.5039C191.149 70.5039 201.297 71.5177 210.137 73.6855C218.506 75.738 225.999 78.6288 232.46 82.4883L233.082 82.8652L233.148 82.9053L233.214 82.9473C247.561 92.0751 255.532 105.137 255.532 121.583C255.532 131.778 252.276 140.848 245.278 147.925C243.606 149.616 241.782 151.17 239.821 152.601C243.932 155.135 247.646 158.137 250.923 161.634C259.311 170.224 263.634 180.755 263.634 192.744C263.634 202.279 261.448 211.059 256.738 218.729L256.71 218.773L256.682 218.819C252.127 226.05 245.78 231.956 237.961 236.632L237.962 236.633C223.415 245.46 204.527 249.418 182.134 249.418H70.543V70.5039H179.819V79.9609H80V239.961H182.134L184.128 239.95C204.601 239.72 220.91 235.919 233.056 228.549C239.596 224.647 244.688 219.904 248.332 214.322L248.68 213.779C252.345 207.812 254.177 200.8 254.177 192.744ZM194.088 189.388C194.088 186.23 193.085 184.631 190.698 183.246L190.548 183.159L190.401 183.066C187.077 180.972 182.394 179.6 175.769 179.6H140.09V198.729H176.348V208.185H130.633V170.143H175.769C183.677 170.143 190.235 171.783 195.443 175.065C200.844 178.198 203.544 182.973 203.544 189.388L203.537 189.916C203.391 195.34 200.982 199.714 196.311 203.038L195.854 203.354C191.071 206.575 184.569 208.185 176.348 208.185V198.729C183.689 198.728 188.166 197.227 190.828 195.333C193.287 193.584 194.088 191.841 194.088 189.388ZM187.723 127.178C187.723 125.504 187.311 124.651 185.628 123.632L185.529 123.572L185.433 123.511C183.037 121.98 179.041 120.746 172.586 120.746H140.09V133.833H172.297V143.29H130.633V111.29H172.586C180.108 111.29 186.088 112.707 190.524 115.541C194.961 118.226 197.179 122.105 197.179 127.178L197.172 127.664C197.032 132.65 194.72 136.516 190.235 139.262C185.606 141.947 179.626 143.29 172.297 143.29V133.833C178.472 133.833 182.633 132.704 185.386 131.139C187.268 129.963 187.723 128.924 187.723 127.178Z" fill="black"></path>
</svg></svg><style>@media (prefers-color-scheme: light) { :root { filter: none; } }
@media (prefers-color-scheme: dark) { :root { filter: none; } }
</style></svg>